<?xml version="1.0" encoding="UTF-8" standalone="no"?>
<!-- Created with Inkscape (http://www.inkscape.org/) -->

<svg
   xmlns:dc="http://purl.org/dc/elements/1.1/"
   xmlns:cc="http://creativecommons.org/ns#"
   xmlns:rdf="http://www.w3.org/1999/02/22-rdf-syntax-ns#"
   xmlns:svg="http://www.w3.org/2000/svg"
   xmlns="http://www.w3.org/2000/svg"
   xmlns:xlink="http://www.w3.org/1999/xlink"
   xmlns:sodipodi="http://sodipodi.sourceforge.net/DTD/sodipodi-0.dtd"
   xmlns:inkscape="http://www.inkscape.org/namespaces/inkscape"
   width="210mm"
   height="297mm"
   viewBox="0 0 744.09448819 1052.3622047"
   id="svg2"
   version="1.1"
   inkscape:version="0.91 r13725"
   sodipodi:docname="drawing_logo.svg">
  <sodipodi:namedview
     id="base"
     pagecolor="#ffffff"
     bordercolor="#666666"
     borderopacity="1.0"
     inkscape:pageopacity="0.0"
     inkscape:pageshadow="2"
     inkscape:zoom="1.28"
     inkscape:cx="327.10967"
     inkscape:cy="330.83242"
     inkscape:document-units="px"
     inkscape:current-layer="surface5054"
     showgrid="false"
     inkscape:window-width="1920"
     inkscape:window-height="1033"
     inkscape:window-x="0"
     inkscape:window-y="0"
     inkscape:window-maximized="1"
     showguides="false" />
  <defs
     id="defs4" />
  <metadata
     id="metadata7">
    <rdf:RDF>
      <cc:Work
         rdf:about="">
        <dc:format>image/svg+xml</dc:format>
        <dc:type
           rdf:resource="http://purl.org/dc/dcmitype/StillImage" />
        <dc:title></dc:title>
      </cc:Work>
    </rdf:RDF>
  </metadata>
  <g
     id="layer1"
     inkscape:groupmode="layer"
     inkscape:label="Layer 1">
    <g
       transform="translate(-2076.784,674.34503)"
       id="surface5054">
      <path
         id="path6110"
         d="m 2685.0741,30.026765 c 29.5683,123.679585 -47.893,249.798615 -171.5605,279.364075 -123.6796,29.56838 -249.7957,-47.8809 -279.3641,-171.56047 -29.5654,-123.667346 47.8809,-249.79567 171.5606,-279.36406 123.6674,-29.56545 249.7985,47.89312 279.364,171.560455"
         style="opacity:1;fill:#020431;fill-opacity:1;fill-rule:evenodd;stroke:none;stroke-width:33.20581818"
         inkscape:connector-curvature="0"
         inkscape:export-xdpi="89"
         inkscape:export-ydpi="89" />
      <path
         id="path6112"
         d="m 2356.7931,289.02648 c 0,0 51.3027,-58.95797 154.3599,-105.24086 90.1311,-40.48495 171.9043,-45.07811 171.9043,-45.07811 0,0 -24.9361,102.64306 -126.5626,149.77934 -111.729,51.81723 -199.7016,0.53963 -199.7016,0.53963 z m 0,0"
         style="opacity:1;fill:none;stroke:#ffffff;stroke-width:4.83754683;stroke-linecap:butt;stroke-linejoin:miter;stroke-miterlimit:4;stroke-dasharray:none;stroke-opacity:1"
         inkscape:connector-curvature="0"
         inkscape:export-xdpi="89"
         inkscape:export-ydpi="89" />
      <path
         id="path6114"
         d="m 2327.289,38.11003 c 0,1.367933 -1.6314,2.484817 -3.6017,2.484817 -1.9703,0 -3.6017,-1.116884 -3.6017,-2.484817 0,-1.367909 1.6314,-2.484804 3.6017,-2.484804 1.9703,0 3.6017,1.116895 3.6017,2.484804 z m 0,0"
         style="opacity:1;fill:#6b6e6e;fill-opacity:1;fill-rule:evenodd;stroke:#020431;stroke-width:0.13493316;stroke-linecap:butt;stroke-linejoin:miter;stroke-miterlimit:4;stroke-opacity:1"
         inkscape:connector-curvature="0"
         inkscape:export-xdpi="89"
         inkscape:export-ydpi="89" />
      <path
         id="path6116"
         d="m 2319.3702,40.594847 c 0,0 -3.2377,-9.42472 11.508,-6.801886 6.6387,1.17968 14.7583,11.495439 -8.6341,14.406945 -14.7458,1.832231 -25.187,-4.455104 -25.187,-4.455104 0,0 17.6322,15.197542 38.866,5.496727 23.8443,-10.880495 -4.2292,-25.287445 -16.9168,-16.766247 -4.681,3.149944 0.3639,8.119565 0.3639,8.119565 z m 0,0"
         style="opacity:1;fill:#5e7175;fill-opacity:1;fill-rule:evenodd;stroke:#020431;stroke-width:0.13493316;stroke-linecap:butt;stroke-linejoin:miter;stroke-miterlimit:4;stroke-opacity:1"
         inkscape:connector-curvature="0"
         inkscape:export-xdpi="89"
         inkscape:export-ydpi="89" />
      <path
         id="path6118"
         d="m 2330.1001,35.750716 c 0,0 3.2378,9.424725 -11.508,6.814418 -6.6387,-1.179634 -14.7457,-11.507973 8.6342,-14.41947 14.7583,-1.832241 25.187,4.455108 25.187,4.455108 0,0 -17.6321,-15.185001 -38.8535,-5.496729 -23.8568,10.893052 4.2166,25.287442 16.9043,16.766238 4.681,-3.149944 -0.364,-8.119565 -0.364,-8.119565 z m 0,0"
         style="opacity:1;fill:#5e7175;fill-opacity:1;fill-rule:evenodd;stroke:#020431;stroke-width:0.13493316;stroke-linecap:butt;stroke-linejoin:miter;stroke-miterlimit:4;stroke-opacity:1"
         inkscape:connector-curvature="0"
         inkscape:export-xdpi="89"
         inkscape:export-ydpi="89" />
      <path
         id="path6120"
         d="m 2556.2186,4.1634082 c 0,11.4703178 -9.4373,20.9076068 -20.9076,20.9076068 -11.4578,0 -20.8951,-9.437289 -20.8951,-20.9076068 0,-11.4577881 9.4373,-20.8950682 20.8951,-20.8950682 11.4703,0 20.9076,9.4372801 20.9076,20.8950682 z m 0,0"
         style="opacity:1;fill:#fd5d1f;fill-opacity:1;fill-rule:evenodd;stroke:none;stroke-width:1.39464438;stroke-linecap:butt;stroke-linejoin:miter;stroke-miterlimit:4;stroke-opacity:1"
         inkscape:connector-curvature="0"
         inkscape:export-xdpi="89"
         inkscape:export-ydpi="89" />
      <path
         id="path6122"
         d="m 2514.4661,4.4896911 41.8278,0 c 0,0 0.2007,-3.0997356 -0.7907,-5.8104454 -0.778,-2.1083288 -1.6314,-3.9782148 -1.6314,-3.9782148 l -37.0338,0 c 0,0 -1.0918,1.6565308 -1.9452,4.63078052 -0.7906,2.74836528 -0.4267,5.15787968 -0.4267,5.15787968"
         style="opacity:1;fill:#6b6e6e;fill-opacity:1;fill-rule:evenodd;stroke:none;stroke-width:33.20581818"
         inkscape:connector-curvature="0"
         inkscape:export-xdpi="89"
         inkscape:export-ydpi="89" />
      <path
         id="path6124"
         d="m 2514.4159,4.4896911 41.8027,0 c 0,0 0.1127,-0.8910084 -0.1507,-3.52644598 -0.2133,-2.24634402 -0.9914,-3.16247862 -0.9914,-3.16247862 l -39.5939,0 c 0,0 -0.2759,0.4015938 -0.7906,3.16247862 -0.4769,2.57269458 -0.276,3.52644598 -0.276,3.52644598"
         style="opacity:1;fill:#dba018;fill-opacity:1;fill-rule:evenodd;stroke:none;stroke-width:33.20581818"
         inkscape:connector-curvature="0"
         inkscape:export-xdpi="89"
         inkscape:export-ydpi="89" />
      <path
         id="path6126"
         d="m 2556.0429,7.5141448 -41.3885,0 c 0,0 0.4517,3.1750462 1.7192,5.7978872 1.2299,2.535049 2.6103,4.003351 2.6103,4.003351 l 32.5913,0 c 0,0 2.2464,-2.798589 2.9617,-4.906918 0.891,-2.7106998 1.506,-4.8943202 1.506,-4.8943202"
         style="opacity:1;fill:#6b6e6e;fill-opacity:1;fill-rule:evenodd;stroke:none;stroke-width:33.20581818"
         inkscape:connector-curvature="0"
         inkscape:export-xdpi="89"
         inkscape:export-ydpi="89" />
      <path
         id="path6128"
         d="m 2551.387,6.6105878 c 0,2.4596992 -2.7609,4.4801972 -6.1116,4.4801972 -3.3508,0 -6.1117,-2.020498 -6.1117,-4.4801972 0,-2.4471796 2.7609,-4.4676778 6.1117,-4.4676778 3.3507,0 6.1116,2.0204982 6.1116,4.4676778 z m 0,0"
         style="opacity:1;fill:#c21a17;fill-opacity:1;fill-rule:evenodd;stroke:none;stroke-width:0;stroke-linecap:butt;stroke-linejoin:miter;stroke-miterlimit:4;stroke-dasharray:none;stroke-opacity:1"
         inkscape:connector-curvature="0"
         inkscape:export-xdpi="89"
         inkscape:export-ydpi="89" />
      <path
         id="path6130"
         d="m 2564.5892,5.5313214 c 0,0.8157265 -0.6777,1.4808505 -1.4809,1.4808505 -0.8157,0 -1.4934,-0.665124 -1.4934,-1.4808505 0,-0.8157459 0.6777,-1.4808699 1.4934,-1.4808699 0.8032,0 1.4809,0.665124 1.4809,1.4808699 z m 0,0"
         style="opacity:1;fill:#ffffff;fill-opacity:1;fill-rule:evenodd;stroke:#ffffff;stroke-width:0.13493316;stroke-linecap:butt;stroke-linejoin:miter;stroke-miterlimit:4;stroke-opacity:1"
         inkscape:connector-curvature="0"
         inkscape:export-xdpi="89"
         inkscape:export-ydpi="89" />
      <path
         id="path6132"
         d="m 2574.0265,5.5313214 c 0,0.8157265 -0.6652,1.4808505 -1.4809,1.4808505 -0.8157,0 -1.4809,-0.665124 -1.4809,-1.4808505 0,-0.8157459 0.6652,-1.4808699 1.4809,-1.4808699 0.8157,0 1.4809,0.665124 1.4809,1.4808699 z m 0,0"
         style="opacity:1;fill:#ffffff;fill-opacity:1;fill-rule:evenodd;stroke:#ffffff;stroke-width:0.13493316;stroke-linecap:butt;stroke-linejoin:miter;stroke-miterlimit:4;stroke-opacity:1"
         inkscape:connector-curvature="0"
         inkscape:export-xdpi="89"
         inkscape:export-ydpi="89" />
      <path
         id="path6134"
         d="m 2488.4885,4.9916737 c 0,0.8157362 -0.6777,1.4808602 -1.4934,1.4808602 -0.8032,0 -1.4809,-0.665124 -1.4809,-1.4808602 0,-0.8157362 0.6777,-1.4808602 1.4809,-1.4808602 0.8157,0 1.4934,0.665124 1.4934,1.4808602 z m 0,0"
         style="opacity:1;fill:#ffffff;fill-opacity:1;fill-rule:evenodd;stroke:#ffffff;stroke-width:0.13493316;stroke-linecap:butt;stroke-linejoin:miter;stroke-miterlimit:4;stroke-opacity:1"
         inkscape:connector-curvature="0"
         inkscape:export-xdpi="89"
         inkscape:export-ydpi="89" />
      <path
         id="path6136"
         d="m 2506.836,4.9916737 c 0,0.8157362 -0.6777,1.4808602 -1.4809,1.4808602 -0.8157,0 -1.4934,-0.665124 -1.4934,-1.4808602 0,-0.8157362 0.6777,-1.4808602 1.4934,-1.4808602 0.8032,0 1.4809,0.665124 1.4809,1.4808602 z m 0,0"
         style="opacity:1;fill:#ffffff;fill-opacity:1;fill-rule:evenodd;stroke:#ffffff;stroke-width:0.13493316;stroke-linecap:butt;stroke-linejoin:miter;stroke-miterlimit:4;stroke-opacity:1"
         inkscape:connector-curvature="0"
         inkscape:export-xdpi="89"
         inkscape:export-ydpi="89" />
      <path
         id="path6138"
         d="m 2361.6498,290.64536 c 0,0 51.3027,-58.95794 154.3599,-105.24083 90.3476,-39.40265 167.8663,-43.34947 167.8663,-43.34947 0,0 -24.0229,102.16937 -122.5246,148.86639 -111.2898,52.74592 -199.7016,-0.27596 -199.7016,-0.27596 z"
         style="opacity:1;fill:#032498;fill-opacity:1;fill-rule:evenodd;stroke:#032498;stroke-width:3.23839569;stroke-linecap:butt;stroke-linejoin:miter;stroke-miterlimit:4;stroke-opacity:1"
         inkscape:connector-curvature="0"
         inkscape:export-xdpi="89"
         inkscape:export-ydpi="89" />
      <path
         id="path6140"
         d="m 2429.4176,248.70467 c 14.3065,10.20279 24.8984,25.81447 24.6976,23.95713 -0.038,-0.33882 65.3457,-56.56096 74.6575,-61.85689 1.4808,-0.84083 2.3467,-3.09974 2.3467,-3.09974 -3.1248,-2.10835 -13.8924,-10.02716 -16.0886,-10.30322 -1.8573,-0.22588 -4.7939,3.31309 -7.3038,3.76487 -4.5179,0.81572 1.9075,-5.43399 0.5773,-5.76027 -0.2384,-0.0502 -5.3713,1.22986 -7.5549,2.19621 -1.6942,0.84078 -19.1507,11.65854 -36.3812,23.6936 -18.4856,12.91354 -36.7201,27.06945 -35.5405,26.9314"
         style="opacity:1;fill:#020431;fill-opacity:1;fill-rule:evenodd;stroke:#020431;stroke-width:1.07946527;stroke-linecap:butt;stroke-linejoin:miter;stroke-miterlimit:4;stroke-opacity:1"
         inkscape:connector-curvature="0"
         inkscape:export-xdpi="89"
         inkscape:export-ydpi="89" />
      <path
         id="path6142"
         d="m 2532.4748,252.87112 c -0.5397,4.85669 -23.8191,5.50925 -24.9361,8.85998 -1.6063,4.8316 4.1665,3.38839 -1.6188,6.92738 -3.3257,2.22129 -3.3257,2.22129 -6.6388,4.44257 -2.3719,1.84478 -10.9181,7.60505 -9.6632,9.61298 3.4763,5.55946 11.4578,6.06143 18.1969,8.4333 1.8825,0.66515 4.3297,4.22923 5.8983,5.8105 8.0067,7.99406 22.4763,2.67303 31.8885,-2.03308 8.6843,-4.70608 8.6843,-4.70608 17.3687,-9.39963 3.2252,-1.94518 10.3785,-4.95708 10.2279,-4.91944 6.4254,-1.83222 5.5218,-3.38834 9.249,-4.94453 5.2708,-2.19616 10.1024,-5.25828 15.2352,-8.2827 11.0437,-6.48817 17.8079,-14.043 23.6685,-23.25441 4.4551,-7.00266 -7.2787,0.99144 -11.8719,1.75695 -6.2622,1.0416 -12.5245,4.70609 -16.6658,2.9366 -2.6731,-1.15455 0.9538,-2.9366 2.5099,-4.35472 2.0958,-1.93262 5.7226,-5.5218 4.8567,-7.78071 -1.4558,-3.76489 -21.2214,-1.49342 -22.9658,-1.49342 -16.4776,0 -3.2001,-1.40556 -15.5991,-2.83622 -5.8355,-0.67768 -9.2239,6.75169 -16.4525,6.75169 -5.3085,0 -3.9406,-0.81573 -7.0278,2.69817 -2.924,3.33817 -12.4115,0.26344 -12.4115,4.85669 0,7.16581 10.5291,-0.53963 6.4756,6.21205"
         style="opacity:1;fill:#020431;fill-opacity:1;fill-rule:evenodd;stroke:#020431;stroke-width:1.07946527;stroke-linecap:butt;stroke-linejoin:miter;stroke-miterlimit:4;stroke-opacity:1"
         inkscape:connector-curvature="0"
         inkscape:export-xdpi="89"
         inkscape:export-ydpi="89" />
      <path
         id="path6144"
         d="m 2321.1648,-21.588344 1.004,11.7589637 7.2035,1.7318322 -6.94,1.4683019 -1.2675,12.022504 -1.2675,-12.022504 -6.9274,-1.4683019 6.9274,-1.7318322 z m 0,0"
         style="opacity:1;fill:#ffffff;fill-opacity:1;fill-rule:evenodd;stroke:#ffffff;stroke-width:2.03176975;stroke-linecap:square;stroke-linejoin:round;stroke-miterlimit:4;stroke-dasharray:none;stroke-opacity:1"
         inkscape:connector-curvature="0"
         inkscape:export-xdpi="89"
         inkscape:export-ydpi="89" />
      <path
         id="path6146"
         d="m 2375.6802,61.527575 0.9915,11.758941 7.216,1.731871 -6.9399,1.468292 -1.2676,12.035043 -1.2675,-12.035043 -6.9399,-1.468292 6.9399,-1.731871 z m 0,0"
         style="opacity:1;fill:#ffffff;fill-opacity:1;fill-rule:evenodd;stroke:#ffffff;stroke-width:2.03176975;stroke-linecap:square;stroke-linejoin:round;stroke-miterlimit:4;stroke-dasharray:none;stroke-opacity:1"
         inkscape:connector-curvature="0"
         inkscape:export-xdpi="89"
         inkscape:export-ydpi="89" />
      <path
         id="path6148"
         d="m 2497.6622,48.5764 0.9914,11.758941 7.2035,1.731872 -6.9273,1.468291 -1.2676,12.022499 -1.2675,-12.022499 -6.9399,-1.468291 6.9399,-1.731872 z m 0,0"
         style="opacity:1;fill:#ffffff;fill-opacity:1;fill-rule:evenodd;stroke:#ffffff;stroke-width:2.03176975;stroke-linecap:square;stroke-linejoin:round;stroke-miterlimit:4;stroke-dasharray:none;stroke-opacity:1"
         inkscape:connector-curvature="0"
         inkscape:export-xdpi="89"
         inkscape:export-ydpi="89" />
      <path
         id="path6150"
         d="m 2598.0463,21.594783 1.004,11.758978 7.2035,1.731838 -6.9399,1.455725 -1.2676,12.035076 -1.2675,-12.035076 -6.9273,-1.455725 6.9273,-1.731838 z m 0,0"
         style="opacity:1;fill:#ffffff;fill-opacity:1;fill-rule:evenodd;stroke:#ffffff;stroke-width:2.03176975;stroke-linecap:square;stroke-linejoin:round;stroke-miterlimit:4;stroke-dasharray:none;stroke-opacity:1"
         inkscape:connector-curvature="0"
         inkscape:export-xdpi="89"
         inkscape:export-ydpi="89" />
      <path
         id="path6152"
         d="m 2459.8754,-32.920618 1.004,11.758974 7.2034,1.731842 -6.9399,1.455734 -1.2675,12.035072 -1.2675,-12.035072 -6.9274,-1.455734 6.9274,-1.731842 z m 0,0"
         style="opacity:1;fill:#ffffff;fill-opacity:1;fill-rule:evenodd;stroke:#ffffff;stroke-width:2.03176975;stroke-linecap:square;stroke-linejoin:round;stroke-miterlimit:4;stroke-dasharray:none;stroke-opacity:1;paint-order:markers fill stroke"
         inkscape:connector-curvature="0"
         inkscape:export-xdpi="89"
         inkscape:export-ydpi="89" />
      <path
         id="path6154"
         d="m 2483.0922,-107.4024 0.9914,11.758951 7.2034,1.731823 -6.9399,1.455772 -1.2549,12.035043 -1.2675,-12.035043 -6.94,-1.455772 6.94,-1.731823 z m 0,0"
         style="opacity:1;fill:#ffffff;fill-opacity:1;fill-rule:evenodd;stroke:#ffffff;stroke-width:1.70015776;stroke-linecap:square;stroke-linejoin:round;stroke-miterlimit:4;stroke-dasharray:none;stroke-opacity:1"
         inkscape:connector-curvature="0"
         inkscape:export-xdpi="89"
         inkscape:export-ydpi="89" />
      <path
         id="path6156"
         d="m 2579.1592,-58.295883 0.9914,11.771503 7.2161,1.731861 -6.94,1.455734 -1.2675,12.035082 -1.2675,-12.035082 -6.9399,-1.455734 6.9399,-1.731861 z m 0,0"
         style="opacity:1;fill:#ffffff;fill-opacity:1;fill-rule:evenodd;stroke:#ffffff;stroke-width:2.03176975;stroke-linecap:square;stroke-linejoin:round;stroke-miterlimit:4;stroke-dasharray:none;stroke-opacity:1"
         inkscape:connector-curvature="0"
         inkscape:export-xdpi="89"
         inkscape:export-ydpi="89" />
      <path
         id="path6158"
         d="m 2523.916,256.77402 c -75.6239,20.58131 5.2457,5.96104 9.136,0.80316 -12.2609,16.25176 -26.0153,25.99023 -44.9902,36.26833 -8.7973,4.76884 -3.0119,1.34283 -11.6335,5.65989 -12.537,6.26221 -23.5806,16.13873 -30.3072,18.13413 24.3838,-7.22856 31.9136,-7.05289 54.0636,-12.53705 19.113,-4.73117 41.9784,-7.37913 10.1651,4.78139 19.0629,-7.27875 41.7525,-14.20612 62.5974,-24.63481 22.2755,-11.13151 31.2485,-24.53446 51.8172,-37.7868 3.5139,-2.2464 12.4116,-14.03046 9.2867,-12.96375 -20.5562,6.93993 -38.4268,8.00665 -58.6191,15.00932 -25.5635,8.88509 -51.6039,15.2603 -69.1106,29.59191 9.2742,-7.60504 18.2848,-12.17309 28.9645,-18.87458 8.2325,-5.17042 6.9901,-4.7563 12.9261,-11.03108 8.2827,-8.74708 -20.5563,5.74771 -24.3714,7.17835"
         style="opacity:1;fill:#ffffff;fill-opacity:1;fill-rule:evenodd;stroke:#ffffff;stroke-width:0.53973264;stroke-linecap:butt;stroke-linejoin:miter;stroke-miterlimit:4;stroke-opacity:1"
         inkscape:connector-curvature="0"
         inkscape:export-xdpi="89"
         inkscape:export-ydpi="89" />
      <path
         id="path6160"
         d="m 2526.2125,193.88806 c -171.5152,120.78974 4.1414,-8.43331 -21.6857,24.29601 -9.1862,11.63344 -8.7596,14.62025 -17.971,20.56874 -7.2536,4.69355 -15.4234,9.28671 -21.7861,12.61235 -24.5846,12.87586 -70.0015,28.17382 -88.5373,49.19437 -0.5522,0.61494 14.8959,6.76128 18.6487,4.78139 9.3746,-4.11625 38.2512,-21.59783 16.8039,-2.32166 -4.179,3.75231 -1.2675,3.31309 -7.4043,7.86856 14.043,-6.47557 13.4909,-7.14067 26.053,-15.59909 17.7702,-11.95976 33.1434,-23.59322 51.5411,-36.26834 12.5998,-8.68429 26.3165,-17.8706 38.0755,-25.24974 1.0039,-0.62747 -14.6956,7.60506 -16.4651,8.25762 -32.2901,11.94721 -68.458,18.64869 -95.7533,38.60255 -8.9479,6.53831 -16.1764,14.72065 0.1507,6.31242 11.119,-5.71005 24.2333,-14.20615 37.0841,-20.00404 24.3713,-10.99346 49.1442,-20.49349 72.5993,-33.99683 6.5635,-3.76488 13.8548,-8.14469 18.5859,-13.15194 0.7907,-0.67769 0.7907,-0.67769 1.5813,-1.35538 1.4181,-3.51389 4.4802,-6.18696 -0.6902,-4.86922 -6.9901,1.79457 -32.1018,13.72922 -21.6355,2.49734 5.9485,-6.38773 12.4492,-11.54562 16.6909,-17.18039 2.3217,-3.07465 6.5007,-10.79263 8.3455,-11.70876 4.794,-2.34677 9.4247,-5.07003 13.905,-7.4168 4.7939,-2.52248 11.2193,-5.19554 2.4722,-1.25498 -9.4373,4.24181 -20.3554,8.89767 -30.3323,13.49083 -10.6922,4.932 -22.1877,8.97295 -30.5708,16.46504"
         style="opacity:1;fill:#ffffff;fill-opacity:1;fill-rule:evenodd;stroke:#ffffff;stroke-width:0.53973264;stroke-linecap:butt;stroke-linejoin:miter;stroke-miterlimit:4;stroke-opacity:1"
         inkscape:connector-curvature="0"
         inkscape:export-xdpi="89"
         inkscape:export-ydpi="89" />
      <path
         id="path6108"
         d="m 2691.8987,83.689734 c 0,127.309686 -104.7693,232.079016 -232.0667,232.079016 -127.2973,0 -232.0667,-104.76933 -232.0667,-232.079016 0,-127.297354 104.7694,-232.066754 232.0667,-232.066754 127.2974,0 232.0667,104.7694 232.0667,232.066754 z m 0,0"
         style="opacity:1;fill:none;fill-opacity:1;fill-rule:evenodd;stroke:#dba018;stroke-width:5.22455072;stroke-linecap:butt;stroke-linejoin:miter;stroke-miterlimit:4;stroke-dasharray:none;stroke-opacity:1"
         inkscape:connector-curvature="0"
         inkscape:export-xdpi="89"
         inkscape:export-ydpi="89" />
      <path
         id="path6162"
         d="m 2528.4212,179.19251 c -5.7477,2.88637 -14.0931,4.56803 -18.4102,7.2662 -3.0119,1.88241 -8.0568,4.681 -9.4624,6.55088 3.9908,-5.32102 11.1315,-7.59251 20.3304,-9.98949 2.422,-0.2885 2.422,-0.2885 4.8441,-0.58981 0.276,0 0.276,0 0.5396,0 -3.6519,2.63541 -6.6261,5.33358 -11.2821,8.23251 -3.9907,2.49738 -8.7219,4.29197 -12.3613,6.40032 -0.5898,0.23838 -0.5898,0.23838 -1.1796,0.47684 6.0488,-3.36326 10.4412,-5.27081 17.2556,-6.88971 3.5139,-1.14202 3.5139,-1.14202 7.0278,-2.28399 5.2959,-1.58127 12.5872,-2.5727 17.2431,-4.27944 9.6757,-3.51389 -4.6308,-0.0751 -8.0819,0.58985 -1.895,0.36392 -7.9188,0.92866 -8.2075,2.08324 0.4016,-1.61891 4.1791,-1.81971 7.1659,-3.31309 6.1995,-3.20018 6.1995,-3.20018 12.399,-6.41287 2.9491,-1.76947 8.0819,-3.75232 11.8342,-4.74373 1.9076,-0.60239 1.9076,-0.60239 3.8151,-1.19219 4.1414,-2.07074 -4.4677,2.1836 -3.539,1.84474 -8.1447,3.04956 -16.5403,3.85273 -24.9737,5.45909 -1.9326,0.40158 -1.9326,0.40158 -3.8778,0.79065 5.8732,-2.93664 11.3574,-4.22922 17.2306,-6.67641"
         style="opacity:1;fill:#ffffff;fill-opacity:1;fill-rule:evenodd;stroke:#ffffff;stroke-width:0.53973264;stroke-linecap:butt;stroke-linejoin:miter;stroke-miterlimit:4;stroke-opacity:1"
         inkscape:connector-curvature="0"
         inkscape:export-xdpi="89"
         inkscape:export-ydpi="89" />
      <path
         id="path6164"
         d="m 2551.1486,189.65884 c 0.7404,0.90357 2.171,2.52246 2.171,2.52246 -7.969,5.40888 -17.6196,10.16518 7.0403,5.10769 6.714,-1.38047 15.298,5.64732 17.9962,5.98615 3.8527,0.47689 13.0013,2.37188 24.183,-6.01124 6.6011,-4.94455 11.4578,-16.61568 16.7914,-17.0047 6.9022,-0.48945 3.9029,7.49212 12.3488,3.04956 -0.063,0.52708 4.7311,-10.7801 -0.075,-9.29927 3.1876,-0.99141 5.9109,-3.36326 6.3752,-6.95246 0.7405,-5.82301 5.3085,-7.4168 5.3085,-7.4168 -0.05,-1.20476 -0.5898,-4.53041 -3.3257,-7.93133 -4.5554,-5.67244 -11.5456,0.87847 -14.8587,-3.38839 0,0 -10.3283,2.09576 -23.4677,5.62221 -22.8026,6.12418 -54.1263,15.47366 -54.9295,17.88317 -0.9162,2.71071 0.3639,6.33752 0.8157,9.04823 0.4518,2.71071 1.4557,5.65987 3.9155,9.12357"
         style="opacity:1;fill:#020431;fill-opacity:1;fill-rule:evenodd;stroke:none;stroke-width:33.20581818"
         inkscape:connector-curvature="0"
         inkscape:export-xdpi="89"
         inkscape:export-ydpi="89" />
      <path
         id="path6166"
         d="m 2631.5161,146.53846 c 0.5898,-0.0628 13.7669,2.15854 8.3581,4.31706 -2.4473,0.97886 -67.4666,18.6236 -16.4525,6.7517 -2.761,0.65256 38.7029,-6.77681 14.0304,1.61885 -26.9817,9.17376 -44.5385,23.55558 -43.2459,23.21678 8.2451,-2.20874 22.5265,-9.61299 31.3739,-12.4241 17.08,-5.44651 22.8905,-4.01588 -11.0687,13.22726 -1.9201,0.96633 -40.6732,16.2768 -39.4057,15.91288 5.547,-1.5938 20.2551,-2.1209 16.327,-0.13815 -10.1651,5.14531 -14.1935,11.98485 -14.3692,13.6665 -0.251,2.43462 24.8105,-15.13479 31.7755,-18.92479 21.8614,-11.87191 24.158,-3.16249 25.4631,-1.49339 -3.037,-3.89039 -35.0259,32.27753 -42.2544,36.56948 -15.1474,8.97296 8.5964,-18.12156 0.9663,-10.03966 -12.0727,12.81312 -29.09,24.30856 -46.1198,31.32378 -0.2132,0.0877 3.6896,-5.97361 5.5093,-7.91879 3.8779,-4.14136 9.5879,-5.42141 12.5998,-8.83491 -2.284,2.57267 -19.1758,8.15723 -19.5648,3.99078 -0.1255,-1.38047 10.1275,-5.43398 10.0773,-5.40889 22.627,-13.98022 12.8508,-22.80259 3.7774,-21.13349 -7.0403,1.30516 -26.8184,11.28208 -15.9128,5.09512 7.4419,-4.22921 11.4954,-20.53113 22.012,-32.66656 2.7357,-3.1625 -20.1673,6.55088 -21.1085,5.84811 4.3798,-7.20349 3.3507,-9.7887 35.7412,-22.09984 2.4723,-0.94122 -13.4657,3.67704 -15.7873,4.32961 -19.8409,5.59713 -26.9691,3.31309 -7.5047,-3.95312 3.2378,-1.21732 15.3733,-5.76026 26.2035,-9.22394 7.9565,-2.54756 13.6415,-3.85272 22.5893,-6.16185 17.9208,-4.65589 19.9538,-4.74375 25.9902,-5.44654 z m 0,0"
         style="opacity:1;fill:#ffffff;fill-opacity:1;fill-rule:evenodd;stroke:#ffffff;stroke-width:0.53973264;stroke-linecap:butt;stroke-linejoin:miter;stroke-miterlimit:4;stroke-opacity:1"
         inkscape:connector-curvature="0"
         inkscape:export-xdpi="89"
         inkscape:export-ydpi="89" />
      <path
         id="path6168"
         d="m 2545.426,172.17725 c 0,0 24.2834,-10.79261 47.5001,-16.72859 23.8819,-6.11164 35.3522,-8.23252 40.2089,-9.72592"
         style="opacity:1;fill:#ffffff;fill-opacity:1;fill-rule:evenodd;stroke:#ffffff;stroke-width:2.42879677;stroke-linecap:butt;stroke-linejoin:miter;stroke-miterlimit:4;stroke-opacity:1"
         inkscape:connector-curvature="0"
         inkscape:export-xdpi="89"
         inkscape:export-ydpi="89" />
      <path
         id="path6238"
         d="m 2432.8938,44.259342 31.2987,26.981592 -48.5669,-110.63715 z m 0,0"
         style="opacity:1;fill:#062192;fill-opacity:1;fill-rule:evenodd;stroke:#ffffff;stroke-width:2.90252829;stroke-linecap:butt;stroke-linejoin:miter;stroke-miterlimit:4;stroke-dasharray:none;stroke-opacity:1"
         inkscape:connector-curvature="0"
         inkscape:export-xdpi="89"
         inkscape:export-ydpi="89" />
      <path
         id="path6236"
         d="m 2439.9654,79.444747 -8.6341,-45.341655 -85.8141,-81.497016 z m 0,0"
         style="opacity:1;fill:#062192;fill-opacity:1;fill-rule:evenodd;stroke:#ffffff;stroke-width:2.90252829;stroke-linecap:butt;stroke-linejoin:round;stroke-miterlimit:4;stroke-dasharray:none;stroke-opacity:1"
         inkscape:connector-curvature="0"
         inkscape:export-xdpi="89"
         inkscape:export-ydpi="89" />
      <path
         id="path6240"
         d="m 2454.8538,74.586675 -108.6016,-121.877885 84.3019,78.821614 -16.8354,-80.980167 z"
         style="opacity:1;fill:#c21a17;fill-opacity:1;fill-rule:evenodd;stroke:#ffffff;stroke-width:2.90252829;stroke-linecap:butt;stroke-linejoin:round;stroke-miterlimit:4;stroke-dasharray:none;stroke-opacity:1"
         inkscape:connector-curvature="0"
         inkscape:export-xdpi="89"
         inkscape:export-ydpi="89" />
      <path
         id="path6242"
         d="m 2414.6953,-49.943091 26.442,128.457576 M 2463.9399,60.970149 2346.1495,-46.98138"
         style="opacity:1;fill:none;stroke:#ffffff;stroke-width:2.90252829;stroke-linecap:round;stroke-linejoin:miter;stroke-miterlimit:4;stroke-dasharray:none;stroke-opacity:1"
         inkscape:connector-curvature="0"
         inkscape:export-xdpi="89"
         inkscape:export-ydpi="89" />
      <path
         id="path6246"
         d="m 2405.7891,-38.616273 c 19.7153,-9.462387 1.782,-20.970379 -17.4816,-23.743841 -10.8931,-1.556123 -21.3468,-0.803169 -28.0107,0.564725 -7.7807,1.593827 -8.496,1.794614 -8.496,1.794614 14.5951,-6.074014 35.6408,-4.580596 48.3284,-0.363929 5.8732,1.957727 27.0067,11.947203 5.7728,21.936651"
         style="opacity:1;fill:#dba018;fill-opacity:1;fill-rule:evenodd;stroke:#dba018;stroke-width:2.69867396;stroke-linecap:butt;stroke-linejoin:miter;stroke-miterlimit:4;stroke-dasharray:none;stroke-opacity:1"
         inkscape:connector-curvature="0"
         inkscape:export-xdpi="89"
         inkscape:export-ydpi="89" />
      <g
         transform="translate(2333.4568,-565.32732)"
         style="font-style:normal;font-weight:normal;font-size:40px;line-height:0%;font-family:sans-serif;letter-spacing:0px;word-spacing:0px;fill:#ff0000;fill-opacity:1;stroke:none;stroke-width:1px;stroke-linecap:butt;stroke-linejoin:miter;stroke-opacity:1"
         id="flowRoot5220"
         inkscape:export-xdpi="89"
         inkscape:export-ydpi="89">
        <path
           d="m 59.675781,507.77637 q 5.161133,1.333 7.827149,4.64843 2.700195,3.28125 2.700195,8.37403 0,7.58789 -5.810547,11.55273 -5.810547,3.93067 -16.953125,3.93067 -3.930664,0 -7.895508,-0.64942 -3.930664,-0.61523 -7.792968,-1.87988 l 0,-10.15137 q 3.691406,1.84571 7.314453,2.80274 3.657226,0.92285 7.177734,0.92285 5.229492,0 7.998047,-1.81153 2.802734,-1.81152 2.802734,-5.19531 0,-3.48633 -2.871093,-5.26367 -2.836915,-1.81152 -8.408204,-1.81152 l -5.263671,0 0,-8.47657 5.537109,0 q 4.956055,0 7.382812,-1.53808 2.426758,-1.57227 2.426758,-4.75098 0,-2.93945 -2.358398,-4.5459 -2.358399,-1.60644 -6.665039,-1.60644 -3.178711,0 -6.425782,0.71777 -3.24707,0.71778 -6.45996,2.11914 l 0,-9.63867 q 3.896484,-1.09375 7.724609,-1.64062 3.828125,-0.54688 7.519531,-0.54688 9.946289,0 14.868164,3.28125 4.956055,3.24707 4.956055,9.80957 0,4.47754 -2.358399,7.34863 -2.358398,2.83692 -6.972656,3.99903 z"
           style="font-style:normal;font-variant:normal;font-weight:bold;font-stretch:normal;font-size:70px;font-family:sans-serif;-inkscape-font-specification:'sans-serif Bold';fill:#ff0000"
           id="path5229"
           inkscape:connector-curvature="0" />
        <path
           d="m 107.9375,509.72461 q 0,-9.57031 -1.81152,-13.4668 -1.77735,-3.93066 -6.01563,-3.93066 -4.23828,0 -6.049803,3.93066 -1.811524,3.89649 -1.811524,13.4668 0,9.67285 1.811524,13.63769 1.811523,3.96485 6.049803,3.96485 4.2041,0 6.01563,-3.96485 1.81152,-3.96484 1.81152,-13.63769 z m 13.15918,0.10254 q 0,12.68066 -5.46875,19.58496 -5.46875,6.87012 -15.51758,6.87012 -10.083006,0 -15.551756,-6.87012 -5.46875,-6.9043 -5.46875,-19.58496 0,-12.71485 5.46875,-19.58496 5.46875,-6.9043 15.551756,-6.9043 10.04883,0 15.51758,6.9043 5.46875,6.87011 5.46875,19.58496 z"
           style="font-style:normal;font-variant:normal;font-weight:bold;font-stretch:normal;font-size:70px;font-family:sans-serif;-inkscape-font-specification:'sans-serif Bold';fill:#ff0000"
           id="path5231"
           inkscape:connector-curvature="0" />
        <path
           d="m 156.60937,509.72461 q 0,-9.57031 -1.81152,-13.4668 -1.77734,-3.93066 -6.01562,-3.93066 -4.23828,0 -6.04981,3.93066 -1.81152,3.89649 -1.81152,13.4668 0,9.67285 1.81152,13.63769 1.81153,3.96485 6.04981,3.96485 4.2041,0 6.01562,-3.96485 1.81152,-3.96484 1.81152,-13.63769 z m 13.15918,0.10254 q 0,12.68066 -5.46875,19.58496 -5.46875,6.87012 -15.51757,6.87012 -10.08301,0 -15.55176,-6.87012 -5.46875,-6.9043 -5.46875,-19.58496 0,-12.71485 5.46875,-19.58496 5.46875,-6.9043 15.55176,-6.9043 10.04882,0 15.51757,6.9043 5.46875,6.87011 5.46875,19.58496 z"
           style="font-style:normal;font-variant:normal;font-weight:bold;font-stretch:normal;font-size:70px;font-family:sans-serif;-inkscape-font-specification:'sans-serif Bold';fill:#ff0000"
           id="path5233"
           inkscape:connector-curvature="0" />
        <path
           d="m 205.28125,509.72461 q 0,-9.57031 -1.81152,-13.4668 -1.77735,-3.93066 -6.01563,-3.93066 -4.23828,0 -6.0498,3.93066 -1.81153,3.89649 -1.81153,13.4668 0,9.67285 1.81153,13.63769 1.81152,3.96485 6.0498,3.96485 4.2041,0 6.01563,-3.96485 1.81152,-3.96484 1.81152,-13.63769 z m 13.15918,0.10254 q 0,12.68066 -5.46875,19.58496 -5.46875,6.87012 -15.51758,6.87012 -10.08301,0 -15.55176,-6.87012 -5.46875,-6.9043 -5.46875,-19.58496 0,-12.71485 5.46875,-19.58496 5.46875,-6.9043 15.55176,-6.9043 10.04883,0 15.51758,6.9043 5.46875,6.87011 5.46875,19.58496 z"
           style="font-style:normal;font-variant:normal;font-weight:bold;font-stretch:normal;font-size:70px;font-family:sans-serif;-inkscape-font-specification:'sans-serif Bold';fill:#ff0000"
           id="path5235"
           inkscape:connector-curvature="0" />
      </g>
      <path
         id="path6254"
         d="m 2353.2792,9.3087393 c -2.2966,-4.3170656 -4.8567,-5.1202339 -3.2377,-16.1889574 m 11.4703,-5.3963319 c -3.9155,8.0944737 -6.4756,8.6341117 -10.9308,22.940654 m 43.7228,-5.5343764 c -3.5139,-4.0535258 -6.4756,-6.3375542 -7.2913,-17.6823856"
         style="opacity:1;fill:none;stroke:#020431;stroke-width:1.61919785;stroke-linecap:butt;stroke-linejoin:miter;stroke-miterlimit:4;stroke-opacity:1"
         inkscape:connector-curvature="0"
         inkscape:export-xdpi="89"
         inkscape:export-ydpi="89" />
      <path
         id="path6256"
         d="M 2401.3824,12.628564 2383.5746,-3.8364819"
         style="opacity:1;fill:none;stroke:#ffffff;stroke-width:1.07946527;stroke-linecap:square;stroke-linejoin:miter;stroke-miterlimit:4;stroke-opacity:1"
         inkscape:connector-curvature="0"
         inkscape:export-xdpi="89"
         inkscape:export-ydpi="89" />
      <path
         id="path6258"
         d="m 2395.5211,-19.429802 c 0.6652,10.5290759 -0.2759,13.6288503 0.4016,22.6645463"
         style="opacity:1;fill:none;stroke:#020431;stroke-width:1.61919785;stroke-linecap:butt;stroke-linejoin:miter;stroke-miterlimit:4;stroke-opacity:1"
         inkscape:connector-curvature="0"
         inkscape:export-xdpi="89"
         inkscape:export-ydpi="89" />
      <path
         id="path6262"
         d="m 2395.9227,-92.430757 c -4.9947,-12.411543 -10.253,-17.945923 -17.8078,-24.421493"
         style="opacity:1;fill:none;stroke:#020431;stroke-width:1.61919785;stroke-linecap:butt;stroke-linejoin:miter;stroke-miterlimit:4;stroke-opacity:1"
         inkscape:connector-curvature="0"
         inkscape:export-xdpi="89"
         inkscape:export-ydpi="89" />
      <path
         id="path6264"
         d="m 2556.5574,4.2512484 c 0,11.6585756 -9.5879,21.2464486 -21.2464,21.2464486 -11.6586,0 -21.259,-9.587873 -21.259,-21.2464486 0,-11.6585463 9.6004,-21.2464484 21.259,-21.2464484 11.6585,0 21.2464,9.5879021 21.2464,21.2464484 z m 0,0"
         style="opacity:1;fill:none;stroke:#020431;stroke-width:1.07946527;stroke-linecap:butt;stroke-linejoin:miter;stroke-miterlimit:4;stroke-opacity:1"
         inkscape:connector-curvature="0"
         inkscape:export-xdpi="89"
         inkscape:export-ydpi="89" />
      <path
         id="path6284"
         d="m 2312.5307,217.78247 c 0,2.07068 -5.1202,3.77743 -11.3323,3.77743 -6.212,0 -11.3322,-1.70675 -11.3322,-3.77743 0,-2.0707 5.1202,-3.77744 11.3322,-3.77744 6.2121,0 11.3323,1.70674 11.3323,3.77744 z m -7.5548,0 c 0,4.59315 -1.7068,8.37056 -3.7775,8.37056 -2.0706,0 -3.7774,-3.77741 -3.7774,-8.37056 0,-4.59314 1.7068,-8.37056 3.7774,-8.37056 2.0707,0 3.7775,3.77742 3.7775,8.37056 z m 0,0"
         style="opacity:1;fill:none;stroke:#dba018;stroke-width:1.07946527;stroke-linecap:butt;stroke-linejoin:miter;stroke-miterlimit:4;stroke-opacity:1"
         inkscape:connector-curvature="0"
         inkscape:export-xdpi="89"
         inkscape:export-ydpi="89" />
      <path
         id="path6286"
         d="m 2303.0809,217.78247 c 0,1.04161 -0.8408,1.89499 -1.8825,1.89499 -1.0416,0 -1.8949,-0.85338 -1.8949,-1.89499 0,-1.0416 0.8533,-1.88243 1.8949,-1.88243 1.0417,0 1.8825,0.84083 1.8825,1.88243 z m 0,0"
         style="opacity:1;fill:#b41110;fill-opacity:1;fill-rule:evenodd;stroke:#b41110;stroke-width:0.13495228;stroke-linecap:butt;stroke-linejoin:miter;stroke-miterlimit:4;stroke-dasharray:none;stroke-opacity:1"
         inkscape:connector-curvature="0"
         inkscape:export-xdpi="89"
         inkscape:export-ydpi="89" />
      <path
         id="path6288"
         d="m 2638.5313,211.57043 c 0,2.08323 -5.1202,3.77742 -11.3322,3.77742 -6.2247,0 -11.3323,-1.69419 -11.3323,-3.77742 0,-2.07068 5.1076,-3.77743 11.3323,-3.77743 6.212,0 11.3322,1.70675 11.3322,3.77743 z m -7.5548,0 c 0,4.59314 -1.7068,8.37056 -3.7774,8.37056 -2.0707,0 -3.7774,-3.77742 -3.7774,-8.37056 0,-4.58061 1.7067,-8.35803 3.7774,-8.35803 2.0706,0 3.7774,3.77742 3.7774,8.35803 z m 0,0"
         style="opacity:1;fill:none;stroke:#dba018;stroke-width:1.07946527;stroke-linecap:butt;stroke-linejoin:miter;stroke-miterlimit:4;stroke-opacity:1"
         inkscape:connector-curvature="0"
         inkscape:export-xdpi="89"
         inkscape:export-ydpi="89" />
      <path
         id="path6290"
         d="m 2629.0815,211.57043 c 0,1.0416 -0.8534,1.89498 -1.8824,1.89498 -1.0417,0 -1.895,-0.85338 -1.895,-1.89498 0,-1.02908 0.8533,-1.88246 1.895,-1.88246 1.029,0 1.8824,0.85338 1.8824,1.88246 z m 0,0"
         style="opacity:1;fill:#b41110;fill-opacity:1;fill-rule:evenodd;stroke:#b41110;stroke-width:0.13493316;stroke-linecap:butt;stroke-linejoin:miter;stroke-miterlimit:4;stroke-opacity:1"
         inkscape:connector-curvature="0"
         inkscape:export-xdpi="89"
         inkscape:export-ydpi="89" />
      <path
         style="opacity:1;fill:#6b6e6e;fill-opacity:1;fill-rule:evenodd;stroke:#020431;stroke-width:0.13493316;stroke-linecap:butt;stroke-linejoin:miter;stroke-miterlimit:4;stroke-opacity:1"
         d="m 2319.3702,40.594847 c 0,0 -3.2377,-9.42472 11.508,-6.801886 6.6387,1.17968 14.7583,11.495439 -8.6341,14.406945 -14.7458,1.832231 -25.187,-4.455104 -25.187,-4.455104 0,0 17.6322,15.197542 38.866,5.496727 23.8443,-10.880495 -4.2292,-25.287445 -16.9168,-16.766247 -4.681,3.149944 0.3639,8.119565 0.3639,8.119565 z m 0,0"
         id="path4628"
         inkscape:connector-curvature="0"
         inkscape:export-xdpi="89"
         inkscape:export-ydpi="89" />
      <path
         style="opacity:1;fill:#6b6e6e;fill-opacity:1;fill-rule:evenodd;stroke:#020431;stroke-width:0.13493316;stroke-linecap:butt;stroke-linejoin:miter;stroke-miterlimit:4;stroke-opacity:1"
         d="m 2330.1001,35.750716 c 0,0 3.2378,9.424725 -11.508,6.814418 -6.6387,-1.179634 -14.7457,-11.507973 8.6342,-14.41947 14.7583,-1.832241 25.187,4.455108 25.187,4.455108 0,0 -17.6321,-15.185001 -38.8535,-5.496729 -23.8568,10.893052 4.2166,25.287442 16.9043,16.766238 4.681,-3.149944 -0.364,-8.119565 -0.364,-8.119565 z m 0,0"
         id="path4630"
         inkscape:connector-curvature="0"
         inkscape:export-xdpi="89"
         inkscape:export-ydpi="89" />
      <flowRoot
         xml:space="preserve"
         id="flowRoot5212"
         style="font-style:normal;font-variant:normal;font-weight:normal;font-stretch:normal;font-size:40px;line-height:0%;font-family:'WenQuanYi Micro Hei Mono';-inkscape-font-specification:'WenQuanYi Micro Hei Mono';letter-spacing:0px;word-spacing:0px;fill:#000000;fill-opacity:1;stroke:none;stroke-width:1px;stroke-linecap:butt;stroke-linejoin:miter;stroke-opacity:1"><flowRegion
           id="flowRegion5214"><rect
             id="rect5216"
             width="380.06989"
             height="132.03009"
             x="33.14563"
             y="514.85052"
             style="font-style:normal;font-variant:normal;font-weight:normal;font-stretch:normal;font-family:'WenQuanYi Micro Hei Mono';-inkscape-font-specification:'WenQuanYi Micro Hei Mono'" /></flowRegion><flowPara
           id="flowPara5218"></flowPara></flowRoot>      <path
         id="path6252"
         d="m 2360.8827,-61.990702 c -20.3303,4.266891 -21.6104,16.879217 4.1163,24.195611 8.3329,2.359339 15.5113,2.233843 21.7484,2.69818 4.7689,0.351371 9.9895,-2.610311 9.9769,0.0877 -0.014,3.024454 -10.3032,1.129441 -10.3032,1.129441 -6.325,-0.263433 -12.7755,-0.87844 -20.7319,-2.698141 -18.1843,-4.166444 -29.6798,-16.264259 -13.3025,-23.618317"
         style="opacity:1;fill:#dba018;fill-opacity:1;fill-rule:evenodd;stroke:#dba018;stroke-width:2.69866276;stroke-linecap:butt;stroke-linejoin:miter;stroke-miterlimit:4;stroke-opacity:1"
         inkscape:connector-curvature="0"
         inkscape:export-xdpi="89"
         inkscape:export-ydpi="89" />
      <circle
         style="fill:none;fill-opacity:1;stroke:none;stroke-opacity:1"
         id="path5237"
         cx="-2206.2874"
         cy="-1092.9415"
         r="198.87378"
         transform="matrix(-0.91072208,0.41301973,-0.41301973,-0.91072208,0,0)"
         inkscape:export-xdpi="89"
         inkscape:export-ydpi="89" />
      <text
         xml:space="preserve"
         style="font-style:normal;font-weight:normal;font-size:40px;line-height:100%;font-family:sans-serif;letter-spacing:0px;word-spacing:0px;fill:#000000;fill-opacity:1;stroke:none;stroke-width:1px;stroke-linecap:butt;stroke-linejoin:miter;stroke-opacity:1"
         id="text5247"
         sodipodi:linespacing="100%"
         x="-220.97087"
         y="-255.22136"
         inkscape:export-xdpi="89"
         inkscape:export-ydpi="89"><textPath
           xlink:href="#path5237"
           id="textPath5253"><tspan
             id="tspan5249"
             style="letter-spacing:2px"><tspan
               id="tspan5251"
               style="font-style:normal;font-variant:normal;font-weight:bold;font-stretch:normal;font-size:30px;font-family:sans-serif;-inkscape-font-specification:'sans-serif Bold';letter-spacing:2px;fill:#dba018;fill-opacity:1"
               y="-376.9823"
               x="1872.9381"><tspan
   style="letter-spacing:5px"
   id="tspan5261"> NEW!   GESTIONALE   CULINARI</tspan>O  3000</tspan></tspan></textPath></text>
    </g>
    <path
       sodipodi:nodetypes="ccccccccc"
       id="path4490"
       d="m 508.87125,811.22204 c 0.51503,6.32795 4.30519,12.13149 -6.43777,20.25684 -25.4208,19.77144 -60.23857,40.57137 -106.11446,65.25913 -15.55884,7.41329 -31.90799,16.44371 -55.53034,13.83585 -13.62218,0.21666 -22.88807,-4.81025 -31.20742,-11.35238 6.89561,1.28132 -32.97415,-0.50145 -58.25389,-11.14135 -0.66139,3.3597 -6.76203,4.39448 -12.46367,5.67954 -25.73175,-15.65352 -10.13873,-23.0597 -13.83555,-34.56756 0,0 283.8431,-47.97007 283.8431,-47.97007 0,0 0,0 0,0"
       style="stroke-width:1px"
       inkscape:connector-curvature="0"
       inkscape:export-xdpi="89"
       inkscape:export-ydpi="89" />
    <path
       sodipodi:nodetypes="ccccccccccc"
       id="path4488"
       d="m 511.9783,809.99749 c 0,0 -2.53428,5.94387 -2.53428,5.94387 -29.43529,16.50011 -43.39259,28.60945 -117.79157,64.81881 -11.29895,5.00296 -25.56347,4.93891 -36.45903,8.53032 -35.1765,7.30281 -82.21384,-6.772 -132.28851,-18.11212 0,0 -6.56541,-8.7947 -6.56541,-8.7947 7.65215,-1.96179 -68.7807,-163.52353 62.82928,-198.72578 68.86428,-8.03199 103.57196,2.41327 136.36528,8.24413 23.34873,4.75782 38.95852,12.8382 63.15624,31.85959 16.26782,16.51076 19.48987,23.82997 26.1963,51.43667 0,0 7.0917,54.79921 7.0917,54.79921 0,0 0,0 0,0"
       style="opacity:0.98000004;fill:#b1b0b0;fill-opacity:1;stroke:#000000;stroke-width:0.86339134px;stroke-opacity:1"
       inkscape:connector-curvature="0"
       inkscape:export-xdpi="89"
       inkscape:export-ydpi="89" />
    <path
       style="fill:none;stroke:#c3c3c3;stroke-width:0.84490645px;stroke-opacity:1"
       d="m 475.1001,712.28718 c 8.00582,1.27218 3.94004,-2.53922 0.15425,-6.35735 -7.27127,-7.49138 -18.9853,-15.34252 -37.82455,-23.93561 -5.8754,0.2543 -12.7424,-1.03267 -21.43695,-5.35208 -34.41944,-3.78277 -79.32751,-16.05947 -122.06948,-6.386 17.821,16.21202 46.3367,31.76371 82.10759,45.6727 44.22329,-2.37719 74.05926,-3.37137 99.06914,-3.64166 0,0 0,0 0,0"
       id="path4506"
       sodipodi:nodetypes="ccccccc"
       inkscape:connector-curvature="0"
       inkscape:export-xdpi="89"
       inkscape:export-ydpi="89" />
    <path
       sodipodi:nodetypes="ccccccc"
       id="path4500"
       d="m 475.60068,712.42188 c 8.03966,1.24498 3.95154,-2.66347 0.14381,-6.58215 -7.31587,-7.69232 -19.09953,-15.72206 -38.05563,-24.46478 -5.9085,0.31321 -12.81923,-0.96276 -21.57784,-5.36763 -34.66971,-3.63645 -79.99019,-16.01077 -123.1224,-5.61211 18.05783,16.68948 46.8866,32.58423 82.9844,46.69046 44.51034,-2.86239 74.50561,-4.15995 99.62766,-4.66379 0,0 0,0 0,0"
       style="fill:none;stroke:#000000;stroke-width:0.86339134px;stroke-opacity:1"
       inkscape:connector-curvature="0"
       inkscape:export-xdpi="89"
       inkscape:export-ydpi="89" />
    <path
       sodipodi:nodetypes="ccccc"
       id="path4502"
       d="m 446.49215,701.05246 c -4.30046,-4.32729 -10.56216,-8.19609 -17.48896,-12.0795 -32.3606,-2.29857 -64.06999,-3.10725 -102.14188,-4.29607 5.36313,4.88434 12.24182,9.82222 25.32524,15.20716 40.26305,0.42482 69.5397,0.82004 94.3056,1.16841 0,0 0,0 0,0"
       style="stroke-width:1px"
       inkscape:connector-curvature="0"
       inkscape:export-xdpi="89"
       inkscape:export-ydpi="89" />
    <path
       sodipodi:nodetypes="ccccc"
       id="path4504"
       d="m 462.29466,710.99732 c -2.06645,-1.96405 -4.40414,-3.58898 -7.29205,-4.47549 -25.65072,0.49262 -57.58944,-1.26191 -89.69232,2.51571 3.47772,2.50535 7.13222,5.49517 9.72636,6.17779 0,0 87.25801,-4.21801 87.25801,-4.21801 0,0 0,0 0,0"
       style="stroke-width:1px"
       inkscape:connector-curvature="0"
       inkscape:export-xdpi="89"
       inkscape:export-ydpi="89" />
    <path
       sodipodi:nodetypes="cccccccsscccc"
       id="path4508"
       d="m 478.52827,710.65285 c 0,0 -14.61885,0.71318 -14.61885,0.71318 0,0 -4.99323,-3.57483 -4.99323,-3.57483 0,0 -11.69036,-1.71897 -11.69036,-1.71897 0,0 -7.31532,-5.12817 -7.31532,-5.12817 0,0 8.13855,0.21491 8.13855,0.21491 0,0 -17.82629,-12.39474 -17.82629,-12.39474 0,0 -34.87313,-2.50235 -45.06022,-3.2526 -10.71646,-0.7892 -56.1815,-2.12156 -59.64982,-3.03894 -3.52055,-0.93118 -28.712,-11.46343 -28.712,-11.46343 18.50282,-6.35187 59.53319,-4.29046 119.17521,6.43067 7.80915,3.64839 15.2415,6.35877 22.18654,6.30109 21.95237,8.86033 31.8342,17.64902 40.3658,26.91179 0,0 0,0 0,0"
       style="fill:#919191;fill-opacity:1;stroke:none"
       inkscape:connector-curvature="0"
       inkscape:export-xdpi="89"
       inkscape:export-ydpi="89" />
    <path
       sodipodi:nodetypes="ccccc"
       id="path4518"
       d="m 381.17149,722.30878 c -13.88206,47.6927 -17.35333,101.13974 -9.33716,156.45603 -32.24223,17.17095 -84.03039,-2.08513 -144.72801,-14.84438 -7.62129,-72.78231 -36.49938,-155.67211 52.23858,-190.08013 41.75489,29.22478 75.53424,46.93058 101.82659,48.46848 0,0 0,0 0,0"
       style="fill:#919191;fill-opacity:1;stroke-width:1px"
       inkscape:connector-curvature="0"
       inkscape:export-xdpi="89"
       inkscape:export-ydpi="89" />
    <path
       sodipodi:nodetypes="cc"
       id="path4528"
       d="m 312.76,722.8968 c -38.65017,23.75048 -33.57768,130.46787 -22.60458,135.80825"
       style="stroke:#050505;stroke-width:2.59017396;stroke-miterlimit:4;stroke-dasharray:none;stroke-opacity:1"
       inkscape:connector-curvature="0"
       inkscape:export-xdpi="89"
       inkscape:export-ydpi="89" />
    <path
       sodipodi:nodetypes="cccc"
       id="path4520"
       d="m 485.14287,718.18651 c 20.46993,21.80645 19.87502,59.19732 24.61674,90.42893 0,0 -122.00379,65.06283 -122.00379,65.06283 45.60279,-57.11107 149.59541,-53.0951 97.38705,-155.49176 0,0 0,0 0,0"
       style="fill:#919191;fill-opacity:1;stroke-width:1px"
       inkscape:connector-curvature="0"
       inkscape:export-xdpi="89"
       inkscape:export-ydpi="89" />
  </g>
</svg>
