<?xml version="1.0" encoding="UTF-8" standalone="no"?>
<!-- Created with Inkscape (http://www.inkscape.org/) -->

<svg
   xmlns:dc="http://purl.org/dc/elements/1.1/"
   xmlns:cc="http://creativecommons.org/ns#"
   xmlns:rdf="http://www.w3.org/1999/02/22-rdf-syntax-ns#"
   xmlns:svg="http://www.w3.org/2000/svg"
   xmlns="http://www.w3.org/2000/svg"
   xmlns:xlink="http://www.w3.org/1999/xlink"
   xmlns:sodipodi="http://sodipodi.sourceforge.net/DTD/sodipodi-0.dtd"
   xmlns:inkscape="http://www.inkscape.org/namespaces/inkscape"
   width="210mm"
   height="297mm"
   viewBox="0 0 744.09448819 1052.3622047"
   id="svg2"
   version="1.1"
   inkscape:version="0.91 r13725"
   sodipodi:docname="drawing.svg">
  <defs
     id="defs4" />
  <sodipodi:namedview
     id="base"
     pagecolor="#ffffff"
     bordercolor="#666666"
     borderopacity="1.0"
     inkscape:pageopacity="0.0"
     inkscape:pageshadow="2"
     inkscape:zoom="0.98994949"
     inkscape:cx="384.00935"
     inkscape:cy="482.52433"
     inkscape:document-units="px"
     inkscape:current-layer="layer3"
     showgrid="false"
     showguides="true"
     inkscape:guide-bbox="true"
     inkscape:window-width="1366"
     inkscape:window-height="721"
     inkscape:window-x="0"
     inkscape:window-y="0"
     inkscape:window-maximized="1">
    <sodipodi:guide
       position="367.69553,525.27933"
       orientation="0,1"
       id="guide3336" />
    <sodipodi:guide
       position="367.69553,525.27933"
       orientation="1,0"
       id="guide3338" />
    <sodipodi:guide
       position="288.57143,610.00002"
       orientation="0,1"
       id="guide4162" />
  </sodipodi:namedview>
  <metadata
     id="metadata7">
    <rdf:RDF>
      <cc:Work
         rdf:about="">
        <dc:format>image/svg+xml</dc:format>
        <dc:type
           rdf:resource="http://purl.org/dc/dcmitype/StillImage" />
        <dc:title />
      </cc:Work>
    </rdf:RDF>
  </metadata>
  <g
     inkscape:groupmode="layer"
     id="layer3"
     inkscape:label="SFONDO">
    <circle
       style="display:inline;fill:#e50000;fill-opacity:1;stroke:none"
       id="path4152"
       cx="367.69553"
       cy="527.08289"
       r="220.13214" />
    <circle
       style="display:inline;fill:#ff0a0a;fill-opacity:1;stroke:none;stroke-opacity:1"
       id="path4159"
       cx="367.69553"
       cy="527.08289"
       r="210.72517" />
    <circle
       style="display:inline;fill:#fa0707;fill-opacity:1;stroke:#aa0000;stroke-opacity:1"
       id="path4171"
       cx="367.69553"
       cy="527.08289"
       r="201.55518" />
    <path
       style="font-style:normal;font-weight:normal;font-size:370.96658325px;line-height:125%;font-family:sans-serif;letter-spacing:-50px;word-spacing:0px;fill:#ff5200;fill-opacity:1;stroke:none;stroke-width:1px;stroke-linecap:butt;stroke-linejoin:miter;stroke-opacity:1"
       d="M 428.22852 719.18945 A 201.468 201.468 0 0 0 446.15039 712.64648 A 201.468 201.468 0 0 0 464.28516 703.88672 A 201.468 201.468 0 0 0 481.45312 693.36133 A 201.468 201.468 0 0 0 497.48438 681.17383 A 201.468 201.468 0 0 0 504.57617 674.56836 L 440.79492 674.56836 L 440.79492 339.34961 A 201.468 201.468 0 0 0 440.69922 339.30664 A 201.468 201.468 0 0 0 421.58789 332.95703 A 201.468 201.468 0 0 0 401.93945 328.54688 A 201.468 201.468 0 0 0 401.3418 328.47461 L 401.3418 719.18945 L 428.22852 719.18945 z "
       id="path4215" />
    <path
       style="font-style:normal;font-weight:normal;font-size:370.96658325px;line-height:125%;font-family:sans-serif;letter-spacing:-50px;word-spacing:0px;fill:#ff5200;fill-opacity:1;stroke:none;stroke-width:1px;stroke-linecap:butt;stroke-linejoin:miter;stroke-opacity:1"
       d="M 334.41992 328.61133 A 201.468 201.468 0 0 0 327.66992 329.63086 A 201.468 201.468 0 0 0 308.1582 334.61328 A 201.468 201.468 0 0 0 289.24023 341.51953 A 201.468 201.468 0 0 0 271.10742 350.27734 A 201.468 201.468 0 0 0 253.9375 360.80469 A 201.468 201.468 0 0 0 237.90625 372.99219 A 201.468 201.468 0 0 0 223.17188 386.71875 A 201.468 201.468 0 0 0 209.88086 401.84766 A 201.468 201.468 0 0 0 198.16602 418.22852 A 201.468 201.468 0 0 0 188.14648 435.69727 A 201.468 201.468 0 0 0 179.91992 454.08008 A 201.468 201.468 0 0 0 179.32617 455.86914 C 181.99956 474.63024 187.98241 490.08686 197.40039 502.11719 C 210.55143 518.91604 231.84049 531.25249 261.26758 539.12695 L 285.29102 545.42578 C 305.3431 550.85041 319.73112 558.98863 328.45508 569.83789 C 337.30924 580.68715 341.73633 595.73569 341.73633 614.98438 C 341.73633 637.03287 335.61654 654.00706 323.37695 665.90625 C 311.13737 677.80544 293.75456 683.75391 271.22852 683.75391 C 258.95822 683.75391 246.49924 681.54051 233.87305 677.35547 A 201.468 201.468 0 0 0 242.46094 684.89844 A 201.468 201.468 0 0 0 258.8418 696.61328 A 201.468 201.468 0 0 0 276.31055 706.63281 A 201.468 201.468 0 0 0 294.69141 714.85938 A 201.468 201.468 0 0 0 313.68945 721.17188 C 330.08081 716.35973 343.72984 708.51334 354.43164 697.4043 C 373.44206 677.80563 382.94727 649.01929 382.94727 611.04688 C 382.94727 579.19905 375.91602 553.82645 361.85352 534.92773 C 347.92122 515.85404 326.24154 502.55378 296.81445 495.0293 L 272.98633 488.4668 C 251.37174 483.04217 236.6582 475.95643 228.8457 467.20703 C 221.16341 458.28264 217.32227 445.1578 217.32227 427.83398 C 217.32227 407.18539 223.11654 391.26174 234.70508 380.0625 C 246.42383 368.86326 263.02539 363.26367 284.50977 363.26367 C 296.87956 363.26367 309.70508 365.62688 322.98633 370.35156 C 336.26758 375.07624 350.39518 382.25066 365.36914 391.875 L 365.36914 340.16602 C 354.88711 335.47039 344.5773 331.64903 334.41992 328.61133 z "
       id="path4211" />
  </g>
  <g
     inkscape:label="Layer 1"
     inkscape:groupmode="layer"
     id="layer1"
     style="display:inline">
    <ellipse
       style="fill:none;fill-opacity:1;stroke:none;stroke-width:1.10003376;stroke-opacity:1"
       id="path4156"
       cx="-601.87732"
       cy="-240.14198"
       transform="matrix(-0.83558538,-0.54936061,0.56012736,-0.8284065,0,0)"
       rx="159.21359"
       ry="157.78418" />
    <path
       style="fill:none;fill-opacity:1;stroke:none;stroke-opacity:1"
       d="M 193.27036,605.87997 A 191.3978,191.3978 0 0 0 446.49261,701.50802 191.3978,191.3978 0 0 0 542.12068,448.28578 191.3978,191.3978 0 0 0 288.89843,352.65773 191.3978,191.3978 0 0 0 193.27036,605.87997 Z"
       id="path4160"
       inkscape:connector-curvature="0" />
    <text
       xml:space="preserve"
       style="font-style:normal;font-weight:normal;font-size:40px;line-height:125%;font-family:sans-serif;letter-spacing:-53.90000153px;word-spacing:0px;fill:#000000;fill-opacity:1;stroke:none;stroke-width:1px;stroke-linecap:butt;stroke-linejoin:miter;stroke-opacity:1"
       x="-118.18785"
       y="313.9407"
       id="text4145"
       sodipodi:linespacing="125%"><tspan
         sodipodi:role="line"
         id="tspan4147"
         x="-118.18785"
         y="313.9407"></tspan></text>
  </g>
  <g
     inkscape:groupmode="layer"
     id="layer2"
     inkscape:label="TESTI"
     style="display:inline"
     sodipodi:insensitive="true">
    <text
       xml:space="preserve"
       style="font-style:normal;font-weight:normal;font-size:40px;line-height:125%;font-family:sans-serif;letter-spacing:0px;word-spacing:0px;display:inline;fill:#000000;fill-opacity:1;stroke:none;stroke-width:1px;stroke-linecap:butt;stroke-linejoin:miter;stroke-opacity:1"
       id="text4150"
       sodipodi:linespacing="125%"><textPath
         xlink:href="#path4156"
         id="textPath4158"
         style="font-style:normal;font-variant:normal;font-weight:bold;font-stretch:normal;font-size:50px;font-family:'Papyrus LET';-inkscape-font-specification:'Papyrus LET Bold'">Associazione</textPath></text>
    <text
       xml:space="preserve"
       style="font-style:normal;font-weight:normal;font-size:42.48203659px;line-height:125%;font-family:sans-serif;letter-spacing:0px;word-spacing:0px;display:inline;fill:#000000;fill-opacity:1;stroke:none;stroke-width:1px;stroke-linecap:butt;stroke-linejoin:miter;stroke-opacity:1"
       x="186.70955"
       y="518.9939"
       id="text4148"
       sodipodi:linespacing="125%"
       transform="scale(0.94157446,1.0620509)"><tspan
         sodipodi:role="line"
         id="tspan4150"
         x="186.70955"
         y="518.9939"
         style="font-style:normal;font-variant:normal;font-weight:normal;font-stretch:normal;font-size:84.96407318px;font-family:Papyrus;-inkscape-font-specification:Papyrus;letter-spacing:-8.49640751px">San Lorenzo</tspan></text>
    <text
       xml:space="preserve"
       style="font-style:normal;font-weight:normal;font-size:40px;line-height:125%;font-family:sans-serif;letter-spacing:0px;word-spacing:0px;display:inline;fill:#000000;fill-opacity:1;stroke:none;stroke-width:1px;stroke-linecap:butt;stroke-linejoin:miter;stroke-opacity:1"
       id="text4149"
       sodipodi:linespacing="125%"><textPath
         xlink:href="#path4160"
         id="textPath4156"
         style="font-style:normal;font-variant:normal;font-weight:bold;font-stretch:normal;font-size:43.75px;font-family:'Papyrus LET';-inkscape-font-specification:'Papyrus LET Bold';fill:#ababab;fill-opacity:1">Culturale - Capriolo</textPath></text>
  </g>
</svg>
